<?xml version="1.0" standalone="no"?>
<!DOCTYPE svg PUBLIC "-//W3C//DTD SVG 20010904//EN"
 "http://www.w3.org/TR/2001/REC-SVG-20010904/DTD/svg10.dtd">
<svg version="1.0" xmlns="http://www.w3.org/2000/svg"
 width="1024.000000pt" height="1024.000000pt" viewBox="0 0 1024.000000 1024.000000"
 preserveAspectRatio="xMidYMid meet">

<g transform="translate(0.000000,1024.000000) scale(0.100000,-0.100000)"
fill="#000000" stroke="none">
<path d="M0 5120 l0 -5120 5120 0 5120 0 0 5120 0 5120 -5120 0 -5120 0 0
-5120z m5645 2954 c189 -21 283 -39 451 -85 187 -51 272 -80 399 -136 204 -89
489 -262 655 -396 195 -158 426 -397 597 -617 219 -283 399 -642 504 -1005 36
-123 83 -361 75 -381 -6 -16 -91 -20 -114 -5 -7 4 -17 37 -22 72 -15 106 -69
317 -110 434 -132 376 -273 614 -588 995 -200 242 -489 492 -744 643 -179 106
-426 214 -598 261 -132 36 -405 92 -525 107 -132 18 -529 15 -705 -4 -74 -9
-138 -13 -143 -10 -5 3 -47 2 -94 -2 -72 -6 -89 -11 -116 -34 -32 -28 -129
-71 -222 -98 -74 -22 -281 -112 -440 -191 -229 -115 -496 -326 -700 -552 -198
-220 -370 -465 -479 -678 -156 -308 -238 -563 -291 -915 l-6 -37 -57 6 c-31 4
-59 8 -61 10 -7 6 40 275 70 394 91 373 301 781 585 1135 125 155 367 394 504
496 178 132 444 285 663 380 461 200 980 273 1512 213z m-857 -170 c13 -9 38
-29 55 -46 26 -24 29 -31 17 -38 -10 -6 -2 -7 22 -3 33 5 39 3 47 -18 9 -25
11 -24 -56 -44 -10 -3 -10 -10 -3 -27 6 -13 19 -70 29 -126 19 -111 18 -117
-31 -110 -18 2 -24 10 -26 38 -1 19 -10 77 -19 129 l-16 93 -49 -6 c-79 -11
-79 -10 -61 -69 21 -75 40 -100 69 -94 28 5 30 0 7 -25 -25 -28 -104 -25 -139
5 -19 16 -25 29 -21 41 4 10 12 14 19 10 8 -5 9 6 5 41 -4 27 -9 50 -11 53 -6
5 -114 -27 -120 -36 -6 -10 41 -178 68 -243 6 -13 -1 -17 -35 -22 -62 -8 -72
-2 -53 34 8 17 12 39 9 50 -11 32 -46 19 -78 -28 -16 -24 -36 -43 -46 -43 -22
0 -48 27 -56 60 -7 28 -5 30 88 69 48 20 53 31 41 79 -6 20 -11 22 -38 16 -27
-6 -224 -89 -234 -98 -2 -3 3 -15 11 -28 9 -12 27 -53 42 -90 15 -37 33 -72
41 -79 23 -19 16 -48 -18 -69 -17 -10 -35 -17 -40 -14 -4 3 -5 25 -1 49 3 25
3 45 -1 45 -3 0 -30 -13 -59 -30 -68 -38 -110 -39 -134 -4 -15 24 -15 29 -2
53 19 33 54 39 69 12 13 -26 31 -27 60 -3 l22 18 -29 57 -29 57 -85 -50 c-47
-28 -98 -61 -113 -73 l-27 -22 21 -44 c12 -24 42 -75 66 -113 25 -39 44 -71
42 -72 -2 0 -17 -11 -35 -23 -35 -25 -37 -24 -47 27 -3 19 -15 45 -24 58 l-18
24 -12 -40 c-17 -57 -62 -92 -118 -92 -64 0 -82 12 -89 63 -11 74 -17 76 -84
21 -34 -27 -61 -52 -61 -55 0 -3 45 -47 100 -98 113 -105 122 -126 66 -160
-46 -29 -52 -27 -48 18 4 36 1 41 -27 56 -34 17 -51 13 -51 -11 0 -25 -38 -92
-62 -108 -12 -9 -32 -16 -44 -16 -22 0 -74 51 -74 72 0 6 -9 26 -21 44 l-20
33 -28 -31 c-28 -32 -51 -32 -51 1 0 30 263 276 375 351 194 130 183 120 154
146 -20 18 -22 18 -91 -11 -14 -5 -18 -2 -18 14 0 22 63 71 92 71 9 0 31 -17
49 -39 l33 -38 90 55 c118 71 335 174 457 217 80 28 276 81 404 111 30 6 29 7
-30 35 -74 36 -111 36 -159 4 -45 -31 -46 -31 -46 -2 0 30 17 52 55 72 36 19
126 13 163 -11z m822 -75 c173 -16 180 -17 180 -45 0 -21 -4 -24 -32 -22 l-33
3 -9 -85 c-4 -47 -9 -104 -10 -127 -1 -36 -4 -43 -22 -43 -24 0 -44 18 -44 40
0 9 -18 34 -40 54 -46 42 -44 59 8 54 33 -3 36 0 45 31 15 61 4 77 -55 85 -29
3 -65 6 -79 6 l-27 0 -12 -129 c-8 -87 -16 -128 -24 -126 -6 2 -24 6 -39 10
-22 4 -27 10 -22 23 13 30 34 146 35 190 l0 42 -40 0 -40 0 0 -47 c0 -69 -8
-90 -38 -98 -18 -4 -34 0 -54 15 -39 29 -35 13 9 -32 l37 -38 -32 0 c-37 0
-102 51 -102 81 0 24 35 42 71 37 29 -4 29 -4 29 44 l0 48 -75 0 c-74 0 -75 0
-75 26 l0 25 193 -6 c105 -3 239 -10 297 -16z m540 -99 c337 -120 468 -188
735 -381 138 -100 165 -124 165 -145 0 -11 -9 -14 -32 -12 -30 3 -37 -3 -101
-87 -38 -49 -72 -91 -76 -93 -5 -1 -19 6 -32 17 l-24 19 29 31 c35 36 31 43
-56 102 l-58 40 -21 -36 c-22 -36 -27 -39 -53 -29 -28 11 -17 43 38 117 83
112 83 112 39 140 -89 56 -99 58 -114 20 -8 -22 -6 -30 14 -52 12 -14 29 -35
37 -46 14 -19 14 -19 -5 -4 -42 34 -64 31 -96 -14 -17 -23 -34 -48 -38 -55 -6
-10 -18 -8 -54 10 -26 13 -47 26 -47 30 0 3 15 10 33 13 74 16 74 40 0 95
l-56 43 7 -67 c7 -75 -1 -82 -38 -33 -13 17 -20 43 -20 74 -1 42 2 49 27 61
37 18 71 5 123 -49 l38 -39 19 47 c18 46 18 48 0 61 -48 36 -257 122 -268 111
-9 -11 -39 -170 -37 -207 1 -41 0 -42 -26 -35 -52 13 -92 33 -92 48 0 8 16 21
35 29 27 11 35 21 35 40 0 20 -8 27 -47 40 -61 21 -61 21 -65 -11 l-3 -28 -33
32 c-24 24 -32 40 -30 59 5 46 27 50 103 21 37 -15 72 -24 76 -21 8 4 13 73 7
74 -2 0 -41 13 -88 28 -82 27 -85 29 -88 62 -3 28 -1 32 15 25 10 -4 65 -24
123 -45z m-143 -538 c24 -13 39 -52 29 -77 -5 -13 -90 -15 -688 -15 -376 0
-700 3 -720 6 -44 8 -47 22 -14 61 l24 28 294 6 c510 10 1050 6 1075 -9z m360
-211 c12 -1 43 -51 43 -70 0 -29 -81 -31 -1050 -25 -542 3 -1019 8 -1060 12
-67 6 -75 9 -78 29 -2 12 1 30 6 40 10 17 58 18 1069 17 582 -1 1064 -2 1070
-3z m918 -107 c8 -4 22 -19 30 -33 11 -22 11 -32 2 -52 -17 -33 -77 -39 -106
-10 -23 23 -28 70 -9 89 13 13 56 16 83 6z m-1120 -103 l160 -6 3 -29 c2 -16
0 -32 -5 -37 -10 -10 -1634 -12 -1733 -2 -69 7 -75 10 -78 32 -8 52 -24 51
762 50 402 -1 803 -4 891 -8z m456 -73 c13 -18 57 -69 99 -113 41 -45 101
-109 133 -143 l57 -62 260 0 c222 0 261 -2 274 -16 9 -8 16 -21 16 -28 0 -6
27 -54 59 -106 33 -52 58 -97 55 -101 -2 -4 -12 -5 -23 -2 -13 3 -21 -2 -26
-19 -4 -13 -10 -563 -12 -1223 -3 -817 -8 -1199 -15 -1197 -6 2 -57 3 -113 3
-98 0 -103 1 -109 22 -3 12 -6 351 -6 754 l0 732 -145 3 -145 3 0 -757 0 -758
-127 0 -126 0 6 296 6 297 -97 -6 c-81 -6 -106 -12 -156 -37 -56 -30 -59 -30
-79 -13 -34 30 -77 133 -77 184 0 101 62 132 268 132 l142 0 0 97 0 98 -48 20
c-199 86 -393 33 -500 -136 -79 -123 -83 -312 -11 -454 46 -89 167 -176 279
-200 l55 -11 -2 -125 c-1 -69 -4 -126 -6 -128 -1 -2 -47 8 -100 21 -172 42
-331 153 -427 297 -75 113 -120 307 -101 442 33 236 158 423 346 515 82 41
142 53 260 53 73 -1 118 -6 165 -21 36 -11 68 -21 73 -21 4 0 7 48 7 106 l0
106 -37 -6 c-95 -14 -225 -17 -295 -7 -186 26 -333 124 -405 269 -30 60 -37
87 -41 152 -6 97 18 204 58 258 61 85 180 132 333 132 105 0 183 -18 285 -67
60 -28 76 -32 83 -22 5 8 9 60 9 117 l0 104 -327 -3 -327 -3 -73 65 c-61 53
-141 143 -165 184 -4 7 136 9 413 7 298 -2 419 1 419 8 0 6 -44 57 -98 114
-54 56 -104 116 -110 134 -10 31 -10 32 41 61 69 40 99 40 128 -1z m-3406 -3
c30 -29 31 -40 5 -83 -19 -30 -24 -33 -63 -30 -35 3 -44 8 -56 32 -12 26 -12
33 0 55 15 26 52 51 77 51 7 0 24 -11 37 -25z m4248 -23 c26 -23 22 -68 -8
-88 -36 -24 -72 -11 -93 32 -17 36 -17 36 12 60 30 26 56 25 89 -4z m-3332 -4
c30 -8 64 -38 143 -122 58 -61 114 -124 127 -139 l22 -29 621 3 c342 1 628 -1
634 -5 7 -4 23 -29 36 -55 14 -26 41 -67 61 -91 40 -48 70 -99 58 -101 -5 -1
-25 0 -45 1 l-38 2 -2 -909 c-2 -499 -3 -1049 -2 -1221 l0 -313 -25 5 c-14 3
-48 8 -76 12 -41 6 -58 15 -91 48 l-41 41 -6 555 c-4 305 -5 831 -4 1168 l2
612 -512 0 -513 0 0 -135 0 -135 266 0 267 0 46 -52 c25 -29 80 -89 122 -133
l76 -80 22 -119 c25 -136 36 -167 91 -252 22 -33 40 -63 40 -67 0 -4 -27 -7
-60 -7 l-60 0 0 -84 c0 -166 -54 -348 -131 -441 -100 -121 -257 -197 -439
-212 l-67 -6 -12 74 c-7 41 -23 97 -36 124 -14 28 -25 53 -25 57 0 4 15 4 33
2 80 -13 245 37 307 92 42 38 92 128 108 194 6 25 12 79 13 120 l2 75 -281 3
-281 2 1 -505 1 -505 35 0 c60 0 152 30 261 84 115 58 180 76 270 76 68 0 96
-17 110 -68 6 -20 6 -30 0 -27 -5 4 -9 -2 -9 -12 0 -10 -8 -31 -18 -48 -10
-16 -22 -42 -25 -56 -6 -22 -20 -32 -73 -53 -82 -33 -298 -82 -429 -97 -55 -6
-106 -13 -113 -15 -11 -3 -13 -30 -10 -125 l3 -120 -62 5 c-35 4 -93 9 -129
12 l-65 6 1 96 c1 54 1 180 1 282 -1 102 1 384 3 628 l3 442 -211 0 c-116 0
-240 -5 -276 -11 -91 -14 -175 -56 -247 -123 -116 -108 -165 -216 -166 -371
-1 -201 72 -349 229 -461 97 -69 183 -96 331 -102 l122 -5 11 -46 c6 -26 29
-71 51 -99 21 -29 39 -54 39 -57 0 -15 -106 -28 -235 -29 -137 -1 -158 1 -244
27 -151 45 -240 99 -357 214 -81 81 -130 167 -170 298 -23 78 -27 109 -28 230
0 98 5 162 17 215 57 253 278 474 547 547 54 15 109 18 327 18 l263 0 0 106 0
106 -428 -1 -428 -1 -122 123 c-67 68 -122 128 -122 134 0 6 10 8 23 5 22 -6
378 -9 835 -8 l242 1 0 136 0 135 -450 -3 -449 -3 -71 70 c-39 39 -91 96 -116
128 l-46 57 546 -2 c300 -2 546 0 546 4 0 3 -38 42 -84 85 -95 88 -131 141
-122 177 9 36 66 46 137 24z m-1258 -620 c38 -45 3 -118 -58 -118 -63 0 -82
77 -33 130 24 26 63 21 91 -12z m4972 6 c19 -7 45 -55 45 -82 0 -24 -20 -48
-47 -56 -17 -5 -27 1 -46 26 -37 50 -41 74 -18 97 22 22 38 25 66 15z m-5084
-244 c40 -22 19 -140 -34 -189 -22 -20 -29 -22 -41 -11 -48 39 -15 210 41 210
8 0 23 -5 34 -10z m5151 -7 c26 -30 48 -81 58 -135 14 -71 6 -90 -33 -86 -39
4 -54 31 -69 125 -14 92 7 138 44 96z m204 -582 c76 -34 117 -117 95 -191 -44
-148 -219 -175 -308 -47 -58 84 -25 194 71 238 52 23 90 24 142 0z m-5407 -27
c22 -19 48 -56 57 -81 40 -103 -36 -213 -146 -213 -57 0 -101 21 -138 66 -56
67 -52 139 11 211 38 43 58 52 124 52 47 1 57 -3 92 -35z m-672 -41 c21 -9 41
-30 51 -50 15 -33 15 -36 -3 -71 -11 -20 -35 -45 -52 -55 -28 -16 -38 -17 -68
-7 -91 30 -101 155 -15 189 36 14 48 13 87 -6z m6671 1 c27 -19 52 -65 52 -96
0 -31 -25 -65 -62 -84 -28 -14 -34 -14 -74 1 -24 9 -51 26 -59 38 -17 25 -20
80 -5 107 24 45 106 64 148 34z m-4769 -294 c127 -65 156 -225 60 -334 -50
-56 -93 -76 -165 -76 -128 0 -214 90 -214 224 0 83 68 172 155 204 39 15 118
6 164 -18z m4381 -211 c0 -37 -15 -138 -41 -284 -20 -106 -46 -200 -109 -387
-55 -162 -199 -441 -323 -628 -145 -216 -476 -587 -622 -695 -22 -16 -71 -55
-110 -86 -86 -70 -331 -222 -474 -293 -473 -237 -959 -340 -1486 -315 -459 22
-878 148 -1335 400 -110 61 -210 131 -203 142 3 6 2 7 -4 4 -23 -15 -310 214
-296 236 3 6 1 7 -5 3 -16 -10 -86 59 -76 75 4 7 3 10 -3 6 -23 -15 -206 187
-360 398 -78 106 -214 328 -272 444 -125 246 -236 588 -266 820 -8 64 -18 131
-21 149 l-5 32 48 0 c26 0 53 -4 59 -8 13 -8 23 -53 54 -232 77 -457 281 -876
646 -1330 177 -221 476 -483 702 -617 114 -67 357 -188 467 -231 201 -79 482
-149 715 -178 162 -20 528 -15 680 10 112 18 356 73 488 110 302 85 667 283
966 522 189 151 404 402 623 726 151 224 257 453 338 734 42 146 105 433 105
481 0 21 4 23 60 23 l60 0 0 -31z m-336 -85 c14 -36 -4 -170 -39 -291 -14 -49
-18 -53 -46 -53 l-31 0 7 68 c15 144 33 240 50 265 19 30 50 36 59 11z m-5274
-13 c5 -11 22 -69 36 -128 37 -159 53 -205 84 -238 52 -57 64 -103 33 -137
-35 -39 -93 -6 -120 68 -45 123 -103 405 -90 438 9 22 44 20 57 -3z m5178
-393 c26 -26 3 -118 -33 -131 -30 -12 -85 23 -85 54 0 10 14 34 31 54 32 36
65 45 87 23z m-4875 -336 c35 -34 34 -76 -4 -105 -33 -24 -57 -13 -88 37 -24
38 -27 76 -9 94 18 18 68 5 101 -26z m4737 -40 c-1 -37 -22 -62 -52 -62 -36 0
-52 23 -44 65 9 45 32 58 68 39 20 -11 28 -22 28 -42z m-2280 -223 c47 -1 153
2 235 5 89 5 228 3 340 -4 244 -16 307 -17 377 -7 51 6 60 5 79 -14 28 -28 20
-43 -27 -51 -50 -9 -2303 -9 -2369 0 l-50 7 27 21 c15 12 24 24 21 28 -3 3 23
6 58 7 35 1 91 4 124 8 48 5 786 5 1185 0z m-2264 -30 c39 -32 7 -109 -45
-109 -49 0 -93 60 -72 99 17 30 86 36 117 10z m4289 5 c8 -4 22 -19 31 -35 18
-36 7 -62 -37 -84 -37 -20 -62 -13 -77 21 -17 36 -15 55 10 81 22 23 43 28 73
17z m-804 -180 c3 -2 3 -20 0 -40 l-6 -38 -985 -1 c-542 0 -1142 1 -1335 4
l-350 6 -3 33 c-2 17 -2 33 0 34 16 12 2660 14 2679 2z m-3131 -144 l82 -90
34 43 c19 23 34 45 34 48 0 10 -48 28 -90 35 -51 8 -42 24 14 24 51 0 109 -35
181 -109 53 -55 54 -62 3 -31 -44 26 -54 25 -94 -9 l-33 -30 40 -34 c97 -84
423 -287 460 -287 8 0 23 15 32 34 25 54 98 66 164 27 14 -8 8 -10 -34 -11
-54 0 -76 -13 -88 -51 -4 -13 -2 -26 6 -34 24 -21 407 -175 438 -175 13 0 14
-29 2 -49 -7 -10 -13 -11 -29 -2 -20 11 -23 6 -58 -106 -20 -65 -37 -119 -39
-121 -4 -4 -55 21 -55 27 0 3 11 40 24 81 13 41 26 93 28 115 3 39 3 39 -47
57 -27 11 -64 25 -80 33 -17 8 -64 26 -105 41 l-74 26 -16 -23 c-24 -37 -80
-168 -80 -189 0 -23 -18 -26 -44 -7 -19 14 -19 38 -1 93 5 17 0 22 -33 32 -22
7 -55 12 -75 12 -53 0 -67 9 -67 41 0 32 7 35 35 15 32 -22 85 -30 85 -13 0
19 -28 43 -73 62 -20 8 -37 20 -37 25 0 18 50 23 88 8 31 -12 38 -21 50 -61
17 -60 41 -63 78 -7 15 22 25 43 22 45 -10 11 -242 125 -252 125 -6 0 -28 -27
-49 -60 -20 -32 -46 -61 -56 -65 -11 -3 -22 -17 -25 -30 -7 -26 -21 -31 -45
-16 -20 13 -7 39 21 43 16 2 4 9 -41 24 -82 26 -103 52 -109 134 -5 73 4 87
61 88 42 1 44 0 77 -56 19 -31 40 -68 46 -82 l11 -25 21 42 c12 23 22 49 22
57 0 9 -23 27 -50 41 -28 14 -72 42 -98 62 -79 60 -82 60 -134 11 -25 -24 -58
-62 -73 -85 -15 -24 -30 -43 -32 -43 -3 0 -18 10 -35 21 l-29 21 26 28 c15 16
24 33 21 39 -4 6 -31 25 -61 43 -58 35 -83 71 -87 129 -4 44 22 50 58 14 l26
-27 34 33 c39 38 42 54 14 71 -27 17 -26 68 1 68 4 0 44 -40 89 -90z m3613 44
c3 -4 2 -15 -4 -26 -12 -22 -14 -18 86 -148 36 -47 65 -88 65 -91 0 -9 -47
-17 -57 -10 -7 5 -100 117 -139 167 -10 12 -18 10 -58 -12 -25 -14 -46 -28
-46 -30 0 -2 21 -26 48 -52 26 -27 66 -71 89 -99 l41 -49 -25 -33 c-27 -34
-43 -29 -43 15 0 11 -6 29 -14 39 -12 17 -15 15 -41 -29 -34 -58 -55 -70 -110
-61 -52 7 -60 16 -76 80 -6 28 -13 51 -14 53 -2 2 -25 -14 -53 -35 l-51 -37
23 -31 c22 -30 126 -203 126 -211 0 -2 -8 -4 -18 -4 -10 0 -27 -7 -38 -15 -28
-21 -30 -19 -43 28 -6 23 -16 49 -21 57 -10 13 -13 13 -23 -4 -7 -10 -21 -32
-32 -50 -28 -42 -66 -54 -99 -33 -32 21 -49 81 -37 125 5 18 8 32 6 32 -2 0
-31 -14 -65 -32 -74 -37 -74 -36 1 -181 28 -55 49 -100 47 -102 -10 -8 -69
-35 -77 -35 -7 0 -10 20 -8 48 2 45 1 47 -23 44 -14 -1 -34 -14 -45 -28 -27
-33 -88 -43 -115 -19 -23 21 -25 39 -9 84 12 35 41 41 70 15 17 -15 20 -15 44
0 14 9 25 20 25 25 0 17 -31 82 -38 79 -4 -2 -55 -27 -115 -56 -103 -51 -127
-56 -127 -28 0 12 190 119 325 183 74 35 185 102 185 112 0 30 -74 41 -120 18
-14 -7 -33 -29 -43 -50 -19 -42 -31 -46 -47 -17 -14 27 8 78 49 113 27 23 42
27 90 27 48 0 65 -5 98 -29 l41 -30 73 67 c177 161 302 262 324 262 6 0 15 -3
18 -6z m-760 -101 c16 -10 6 -53 -15 -65 -30 -17 -2117 -16 -2160 1 -22 8 -28
17 -28 41 l0 30 758 3 c760 3 1430 -1 1445 -10z m-445 -198 c9 -8 -22 -46 -47
-60 -61 -31 -157 -36 -655 -31 l-491 4 -27 33 c-16 18 -28 36 -28 40 0 14 155
18 664 18 290 0 531 3 534 6 5 5 42 -3 50 -10z m-44 -295 c23 -12 56 -34 71
-50 21 -22 38 -30 62 -30 29 0 33 -3 33 -25 0 -20 -5 -25 -25 -25 -14 0 -25
-1 -25 -2 1 -19 40 -218 45 -230 6 -15 1 -18 -34 -18 -41 0 -41 0 -41 37 0 49
-22 203 -30 203 -3 0 -30 -9 -60 -19 -50 -16 -55 -21 -55 -47 0 -26 4 -29 40
-34 33 -4 39 -8 37 -25 -6 -36 -28 -50 -57 -37 -30 14 -86 3 -120 -22 -19 -14
-19 -16 -3 -32 12 -13 38 -19 83 -22 52 -3 68 -8 76 -23 14 -27 6 -35 -46 -48
-37 -9 -48 -9 -62 4 -10 8 -40 30 -68 48 -37 24 -51 39 -53 59 -3 24 4 33 57
65 61 38 67 47 53 71 -7 10 -25 9 -88 -7 -43 -10 -82 -17 -86 -14 -11 6 -10
51 0 57 4 3 77 16 162 30 85 14 158 30 163 35 15 15 -81 71 -120 71 -44 0 -85
-22 -116 -61 -39 -50 -63 -19 -32 41 34 66 152 90 239 50z m1763 -138 c26 -63
27 -122 1 -172 -29 -56 -68 -79 -139 -82 -70 -2 -118 14 -158 56 -29 30 -34
43 -38 98 -3 45 -1 68 9 82 13 16 14 12 10 -41 -8 -110 33 -161 135 -170 111
-9 183 42 183 131 0 46 -30 118 -63 155 l-22 25 34 -24 c18 -13 40 -39 48 -58z
m-3220 29 c39 -62 17 -151 -36 -151 -32 0 -122 64 -141 101 -19 34 4 52 59 45
31 -4 54 -1 71 9 32 19 33 18 47 -4z m3124 -11 c26 -14 24 -37 -6 -75 l-24
-32 29 -47 c26 -40 28 -47 14 -53 -18 -7 -50 27 -60 65 -4 15 -14 22 -31 22
-23 0 -25 -3 -21 -35 3 -31 1 -35 -18 -35 -14 0 -24 8 -28 23 -8 30 -8 162 1
170 10 11 122 8 144 -3z m-2541 -40 c52 -5 170 -13 263 -17 l167 -6 0 -29 c0
-25 -3 -28 -32 -28 l-33 0 3 -120 4 -120 -37 0 -38 0 7 59 c4 38 3 62 -4 66
-6 4 -31 -5 -56 -20 -57 -34 -74 -28 -74 26 l0 41 55 -7 55 -6 0 44 0 44 -82
6 c-46 3 -84 5 -85 4 -6 -6 -24 -222 -20 -238 4 -16 0 -19 -30 -19 l-36 0 5
49 5 50 -48 -6 c-29 -3 -60 -1 -79 7 -32 13 -70 58 -70 82 0 14 56 68 68 65 4
-1 7 -22 7 -46 0 -55 16 -67 72 -52 43 12 53 27 53 88 l0 31 -72 6 c-40 3 -89
7 -108 9 -30 2 -35 6 -38 31 -4 28 -3 28 40 22 24 -3 86 -11 138 -16z"/>
<path d="M3761 7310 c-36 -20 -66 -41 -68 -46 -2 -5 10 -31 27 -57 34 -55 54
-59 100 -20 48 40 54 66 27 117 l-22 43 -64 -37z"/>
<path d="M3405 7039 c-42 -38 -58 -69 -36 -69 5 0 21 -20 35 -44 15 -25 31
-48 36 -51 28 -18 80 54 80 112 0 35 -34 93 -55 93 -9 0 -36 -19 -60 -41z"/>
<path d="M6751 7300 l-31 -50 26 0 c17 0 41 -16 73 -49 l49 -50 19 22 c58 67
56 60 21 96 -18 18 -53 43 -79 57 l-48 24 -30 -50z"/>
<path d="M6967 6013 c-3 -65 -4 -224 -2 -353 l4 -235 151 -5 150 -5 0 358 0
357 -148 0 -149 0 -6 -117z"/>
<path d="M6282 5759 c-60 -30 -96 -86 -89 -138 8 -64 53 -121 127 -161 l65
-35 168 -3 167 -4 0 111 c0 104 -1 111 -22 122 -13 6 -52 31 -88 54 -36 24
-87 50 -113 59 -69 23 -162 21 -215 -5z"/>
<path d="M4487 5604 c-4 -4 -7 -53 -7 -108 l0 -101 277 3 c153 2 279 5 282 8
11 11 -34 75 -95 135 l-65 64 -192 3 c-106 2 -196 0 -200 -4z"/>
<path d="M3497 3127 c-34 -67 -34 -81 0 -114 l26 -27 44 48 c23 26 43 51 43
55 0 4 -19 26 -43 49 l-43 42 -27 -53z"/>
<path d="M3700 2862 c0 -63 21 -92 66 -92 19 0 34 3 34 7 0 9 -50 95 -68 116
-24 28 -32 20 -32 -31z"/>
<path d="M6925 3020 c-28 -29 -34 -40 -22 -40 9 0 27 -17 41 -38 37 -59 52
-68 77 -46 12 10 27 31 35 45 12 25 11 29 -31 73 -25 25 -48 46 -53 46 -4 0
-26 -18 -47 -40z"/>
<path d="M6678 2832 c-21 -15 -38 -29 -38 -32 0 -3 13 -21 28 -39 l28 -34 29
25 c28 25 29 26 15 67 -7 22 -16 41 -19 41 -3 -1 -23 -13 -43 -28z"/>
<path d="M6683 2691 c-23 -19 -31 -41 -15 -41 16 0 52 32 52 46 0 19 -10 17
-37 -5z"/>
<path d="M6365 2549 c-7 -10 10 -28 28 -29 12 0 8 17 -7 29 -11 9 -16 9 -21 0z"/>
<path d="M4376 2494 c-30 -29 -14 -61 23 -49 25 7 35 34 20 51 -15 18 -24 18
-43 -2z"/>
<path d="M7493 2513 c-18 -7 -16 -53 1 -53 33 0 66 20 66 40 0 15 -6 20 -27
19 -16 0 -34 -3 -40 -6z"/>
</g>
</svg>
